<?xml version="1.0" encoding="UTF-8"?>
<!DOCTYPE svg PUBLIC "-//W3C//DTD SVG 1.1//EN" "http://www.w3.org/Graphics/SVG/1.1/DTD/svg11.dtd">
<svg width="160mm" height="90mm" viewBox="0 0 16000 9000" version="1.1" xmlns="http://www.w3.org/2000/svg" stroke-width="28.222" stroke-linejoin="round" xml:space="preserve">
 <path fill="rgb(255,255,255)" stroke="none" d="M 8000,8999 L 0,8999 0,19 15999,19 15999,8999 8000,8999 Z"/>
 <path fill="none" stroke="rgb(179,179,179)" stroke-linejoin="round" d="M 8773,5712 L 1867,5712 1867,199 15679,199 15679,5712 8773,5712 Z"/>
 <path fill="none" stroke="rgb(179,179,179)" stroke-linejoin="round" d="M 15678,5711 L 1867,5711"/>
 <path fill="none" stroke="rgb(179,179,179)" stroke-linejoin="round" d="M 15678,4792 L 1867,4792"/>
 <path fill="none" stroke="rgb(179,179,179)" stroke-linejoin="round" d="M 15678,3873 L 1867,3873"/>
 <path fill="none" stroke="rgb(179,179,179)" stroke-linejoin="round" d="M 15678,2953 L 1867,2953"/>
 <path fill="none" stroke="rgb(179,179,179)" stroke-linejoin="round" d="M 15678,2034 L 1867,2034"/>
 <path fill="none" stroke="rgb(179,179,179)" stroke-linejoin="round" d="M 15678,1116 L 1867,1116"/>
 <path fill="none" stroke="rgb(179,179,179)" stroke-linejoin="round" d="M 15678,197 L 1867,197"/>
 <path fill="none" stroke="rgb(179,179,179)" stroke-linejoin="round" d="M 1867,5861 L 1867,5711"/>
 <path fill="none" stroke="rgb(179,179,179)" stroke-linejoin="round" d="M 1867,5861 L 1867,5711"/>
 <path fill="none" stroke="rgb(179,179,179)" stroke-linejoin="round" d="M 3018,5861 L 3018,5711"/>
 <path fill="none" stroke="rgb(179,179,179)" stroke-linejoin="round" d="M 3018,5861 L 3018,5711"/>
 <path fill="none" stroke="rgb(179,179,179)" stroke-linejoin="round" d="M 4169,5861 L 4169,5711"/>
 <path fill="none" stroke="rgb(179,179,179)" stroke-linejoin="round" d="M 4169,5861 L 4169,5711"/>
 <path fill="none" stroke="rgb(179,179,179)" stroke-linejoin="round" d="M 5320,5861 L 5320,5711"/>
 <path fill="none" stroke="rgb(179,179,179)" stroke-linejoin="round" d="M 5320,5861 L 5320,5711"/>
 <path fill="none" stroke="rgb(179,179,179)" stroke-linejoin="round" d="M 6471,5861 L 6471,5711"/>
 <path fill="none" stroke="rgb(179,179,179)" stroke-linejoin="round" d="M 6471,5861 L 6471,5711"/>
 <path fill="none" stroke="rgb(179,179,179)" stroke-linejoin="round" d="M 7622,5861 L 7622,5711"/>
 <path fill="none" stroke="rgb(179,179,179)" stroke-linejoin="round" d="M 7622,5861 L 7622,5711"/>
 <path fill="none" stroke="rgb(179,179,179)" stroke-linejoin="round" d="M 8772,5861 L 8772,5711"/>
 <path fill="none" stroke="rgb(179,179,179)" stroke-linejoin="round" d="M 8772,5861 L 8772,5711"/>
 <path fill="none" stroke="rgb(179,179,179)" stroke-linejoin="round" d="M 9923,5861 L 9923,5711"/>
 <path fill="none" stroke="rgb(179,179,179)" stroke-linejoin="round" d="M 9923,5861 L 9923,5711"/>
 <path fill="none" stroke="rgb(179,179,179)" stroke-linejoin="round" d="M 11074,5861 L 11074,5711"/>
 <path fill="none" stroke="rgb(179,179,179)" stroke-linejoin="round" d="M 11074,5861 L 11074,5711"/>
 <path fill="none" stroke="rgb(179,179,179)" stroke-linejoin="round" d="M 12225,5861 L 12225,5711"/>
 <path fill="none" stroke="rgb(179,179,179)" stroke-linejoin="round" d="M 12225,5861 L 12225,5711"/>
 <path fill="none" stroke="rgb(179,179,179)" stroke-linejoin="round" d="M 13376,5861 L 13376,5711"/>
 <path fill="none" stroke="rgb(179,179,179)" stroke-linejoin="round" d="M 13376,5861 L 13376,5711"/>
 <path fill="none" stroke="rgb(179,179,179)" stroke-linejoin="round" d="M 14527,5861 L 14527,5711"/>
 <path fill="none" stroke="rgb(179,179,179)" stroke-linejoin="round" d="M 14527,5861 L 14527,5711"/>
 <path fill="none" stroke="rgb(179,179,179)" stroke-linejoin="round" d="M 15678,5861 L 15678,5711"/>
 <path fill="none" stroke="rgb(179,179,179)" stroke-linejoin="round" d="M 15678,5861 L 15678,5711"/>
 <path fill="none" stroke="rgb(179,179,179)" stroke-linejoin="round" d="M 1867,5711 L 15678,5711"/>
 <path fill="none" stroke="rgb(179,179,179)" stroke-linejoin="round" d="M 1717,5711 L 1867,5711"/>
 <path fill="none" stroke="rgb(179,179,179)" stroke-linejoin="round" d="M 1717,5711 L 1867,5711"/>
 <path fill="none" stroke="rgb(179,179,179)" stroke-linejoin="round" d="M 1717,4792 L 1867,4792"/>
 <path fill="none" stroke="rgb(179,179,179)" stroke-linejoin="round" d="M 1717,4792 L 1867,4792"/>
 <path fill="none" stroke="rgb(179,179,179)" stroke-linejoin="round" d="M 1717,3873 L 1867,3873"/>
 <path fill="none" stroke="rgb(179,179,179)" stroke-linejoin="round" d="M 1717,3873 L 1867,3873"/>
 <path fill="none" stroke="rgb(179,179,179)" stroke-linejoin="round" d="M 1717,2954 L 1867,2954"/>
 <path fill="none" stroke="rgb(179,179,179)" stroke-linejoin="round" d="M 1717,2954 L 1867,2954"/>
 <path fill="none" stroke="rgb(179,179,179)" stroke-linejoin="round" d="M 1717,2034 L 1867,2034"/>
 <path fill="none" stroke="rgb(179,179,179)" stroke-linejoin="round" d="M 1717,2034 L 1867,2034"/>
 <path fill="none" stroke="rgb(179,179,179)" stroke-linejoin="round" d="M 1717,1116 L 1867,1116"/>
 <path fill="none" stroke="rgb(179,179,179)" stroke-linejoin="round" d="M 1717,1116 L 1867,1116"/>
 <path fill="none" stroke="rgb(179,179,179)" stroke-linejoin="round" d="M 1717,198 L 1867,198"/>
 <path fill="none" stroke="rgb(179,179,179)" stroke-linejoin="round" d="M 1717,198 L 1867,198"/>
 <path fill="none" stroke="rgb(179,179,179)" stroke-linejoin="round" d="M 1867,5711 L 1867,198"/>
 <path fill="rgb(0,69,134)" stroke="none" d="M 12513,5711 L 13089,5711 13089,5158 12513,5158 12513,5711 Z"/>
 <path fill="rgb(0,69,134)" stroke="none" d="M 11362,5711 L 11937,5711 11937,5158 11362,5158 11362,5711 Z"/>
 <path fill="rgb(0,69,134)" stroke="none" d="M 10211,5711 L 10786,5711 10786,5069 10211,5069 10211,5711 Z"/>
 <path fill="rgb(0,69,134)" stroke="none" d="M 9060,5711 L 9635,5711 9635,4630 9060,4630 9060,5711 Z"/>
 <path fill="rgb(0,69,134)" stroke="none" d="M 7910,5711 L 8484,5711 8484,4410 7910,4410 7910,5711 Z"/>
 <path fill="rgb(0,69,134)" stroke="none" d="M 6759,5711 L 7334,5711 7334,3988 6759,3988 6759,5711 Z"/>
 <path fill="rgb(0,69,134)" stroke="none" d="M 5608,5711 L 6183,5711 6183,3584 5608,3584 5608,5711 Z"/>
 <path fill="rgb(0,69,134)" stroke="none" d="M 4456,5711 L 5032,5711 5032,3040 4456,3040 4456,5711 Z"/>
 <path fill="rgb(0,69,134)" stroke="none" d="M 3305,5711 L 3881,5711 3881,2380 3305,2380 3305,5711 Z"/>
 <path fill="rgb(0,69,134)" stroke="none" d="M 2154,5711 L 2730,5711 2730,1002 2154,1002 2154,5711 Z"/>
 <text class="TextShape"><tspan class="TextParagraph" font-family="Liberation Sans, sans-serif" font-size="352px" font-weight="400"><tspan class="TextPosition" x="1432" y="5832"><tspan fill="rgb(0,0,0)" stroke="none">1</tspan></tspan></tspan></text>
 <text class="TextShape"><tspan class="TextParagraph" font-family="Liberation Sans, sans-serif" font-size="352px" font-weight="400"><tspan class="TextPosition" x="1247" y="4913"><tspan fill="rgb(0,0,0)" stroke="none">10</tspan></tspan></tspan></text>
 <text class="TextShape"><tspan class="TextParagraph" font-family="Liberation Sans, sans-serif" font-size="352px" font-weight="400"><tspan class="TextPosition" x="1061" y="3994"><tspan fill="rgb(0,0,0)" stroke="none">100</tspan></tspan></tspan></text>
 <text class="TextShape"><tspan class="TextParagraph" font-family="Liberation Sans, sans-serif" font-size="352px" font-weight="400"><tspan class="TextPosition" x="876" y="3075"><tspan fill="rgb(0,0,0)" stroke="none">1000</tspan></tspan></tspan></text>
 <text class="TextShape"><tspan class="TextParagraph" font-family="Liberation Sans, sans-serif" font-size="352px" font-weight="400"><tspan class="TextPosition" x="691" y="2155"><tspan fill="rgb(0,0,0)" stroke="none">10000</tspan></tspan></tspan></text>
 <text class="TextShape"><tspan class="TextParagraph" font-family="Liberation Sans, sans-serif" font-size="352px" font-weight="400"><tspan class="TextPosition" x="506" y="1236"><tspan fill="rgb(0,0,0)" stroke="none">100000</tspan></tspan></tspan></text>
 <text class="TextShape"><tspan class="TextParagraph" font-family="Liberation Sans, sans-serif" font-size="352px" font-weight="400"><tspan class="TextPosition" x="321" y="318"><tspan fill="rgb(0,0,0)" stroke="none">1000000</tspan></tspan></tspan></text>
 <path fill="rgb(0,69,134)" stroke="none" d="M 11484,783 L 11378,783 11378,573 11589,573 11589,783 11484,783 Z"/>
 <text class="TextShape"><tspan class="TextParagraph" font-family="Liberation Sans, sans-serif" font-size="352px" font-weight="400"><tspan class="TextPosition" x="11689" y="797"><tspan fill="rgb(0,0,0)" stroke="none">Quantidade de usuários</tspan></tspan></tspan></text>
 <text class="TextShape"><tspan class="TextParagraph" font-family="Liberation Sans, sans-serif" font-size="317px" font-weight="400"><tspan class="TextPosition" x="6505" y="8406"><tspan fill="rgb(0,0,0)" stroke="none">Quantidade de votos</tspan></tspan></tspan></text>
</svg>