<?xml version="1.0" encoding="UTF-8"?>
<!DOCTYPE svg PUBLIC "-//W3C//DTD SVG 1.1//EN" "http://www.w3.org/Graphics/SVG/1.1/DTD/svg11.dtd">
<svg width="218mm" height="107mm" viewBox="0 0 21800 10700" version="1.1" xmlns="http://www.w3.org/2000/svg" stroke-width="28.222" stroke-linejoin="round" xml:space="preserve">
 <path fill="rgb(255,255,255)" stroke="none" d="M 10896,10659 L 0,10659 0,0 21791,0 21791,10659 10896,10659 Z"/>
 <path fill="none" stroke="rgb(179,179,179)" stroke-linejoin="round" d="M 11711,7921 L 2117,7921 2117,213 21305,213 21305,7921 11711,7921 Z"/>
 <path fill="none" stroke="rgb(179,179,179)" stroke-linejoin="round" d="M 21305,7920 L 2117,7920"/>
 <path fill="none" stroke="rgb(179,179,179)" stroke-linejoin="round" d="M 21305,7149 L 2117,7149"/>
 <path fill="none" stroke="rgb(179,179,179)" stroke-linejoin="round" d="M 21305,6378 L 2117,6378"/>
 <path fill="none" stroke="rgb(179,179,179)" stroke-linejoin="round" d="M 21305,5607 L 2117,5607"/>
 <path fill="none" stroke="rgb(179,179,179)" stroke-linejoin="round" d="M 21305,4837 L 2117,4837"/>
 <path fill="none" stroke="rgb(179,179,179)" stroke-linejoin="round" d="M 21305,4066 L 2117,4066"/>
 <path fill="none" stroke="rgb(179,179,179)" stroke-linejoin="round" d="M 21305,3295 L 2117,3295"/>
 <path fill="none" stroke="rgb(179,179,179)" stroke-linejoin="round" d="M 21305,2524 L 2117,2524"/>
 <path fill="none" stroke="rgb(179,179,179)" stroke-linejoin="round" d="M 21305,1753 L 2117,1753"/>
 <path fill="none" stroke="rgb(179,179,179)" stroke-linejoin="round" d="M 21305,982 L 2117,982"/>
 <path fill="none" stroke="rgb(179,179,179)" stroke-linejoin="round" d="M 21305,212 L 2117,212"/>
 <path fill="none" stroke="rgb(179,179,179)" stroke-linejoin="round" d="M 2117,8070 L 2117,7920"/>
 <path fill="none" stroke="rgb(179,179,179)" stroke-linejoin="round" d="M 2117,8070 L 2117,7920"/>
 <path fill="none" stroke="rgb(179,179,179)" stroke-linejoin="round" d="M 3076,8070 L 3076,7920"/>
 <path fill="none" stroke="rgb(179,179,179)" stroke-linejoin="round" d="M 3076,8070 L 3076,7920"/>
 <path fill="none" stroke="rgb(179,179,179)" stroke-linejoin="round" d="M 4035,8070 L 4035,7920"/>
 <path fill="none" stroke="rgb(179,179,179)" stroke-linejoin="round" d="M 4035,8070 L 4035,7920"/>
 <path fill="none" stroke="rgb(179,179,179)" stroke-linejoin="round" d="M 4995,8070 L 4995,7920"/>
 <path fill="none" stroke="rgb(179,179,179)" stroke-linejoin="round" d="M 4995,8070 L 4995,7920"/>
 <path fill="none" stroke="rgb(179,179,179)" stroke-linejoin="round" d="M 5954,8070 L 5954,7920"/>
 <path fill="none" stroke="rgb(179,179,179)" stroke-linejoin="round" d="M 5954,8070 L 5954,7920"/>
 <path fill="none" stroke="rgb(179,179,179)" stroke-linejoin="round" d="M 6914,8070 L 6914,7920"/>
 <path fill="none" stroke="rgb(179,179,179)" stroke-linejoin="round" d="M 6914,8070 L 6914,7920"/>
 <path fill="none" stroke="rgb(179,179,179)" stroke-linejoin="round" d="M 7873,8070 L 7873,7920"/>
 <path fill="none" stroke="rgb(179,179,179)" stroke-linejoin="round" d="M 7873,8070 L 7873,7920"/>
 <path fill="none" stroke="rgb(179,179,179)" stroke-linejoin="round" d="M 8833,8070 L 8833,7920"/>
 <path fill="none" stroke="rgb(179,179,179)" stroke-linejoin="round" d="M 8833,8070 L 8833,7920"/>
 <path fill="none" stroke="rgb(179,179,179)" stroke-linejoin="round" d="M 9792,8070 L 9792,7920"/>
 <path fill="none" stroke="rgb(179,179,179)" stroke-linejoin="round" d="M 9792,8070 L 9792,7920"/>
 <path fill="none" stroke="rgb(179,179,179)" stroke-linejoin="round" d="M 10752,8070 L 10752,7920"/>
 <path fill="none" stroke="rgb(179,179,179)" stroke-linejoin="round" d="M 10752,8070 L 10752,7920"/>
 <path fill="none" stroke="rgb(179,179,179)" stroke-linejoin="round" d="M 11710,8070 L 11710,7920"/>
 <path fill="none" stroke="rgb(179,179,179)" stroke-linejoin="round" d="M 11710,8070 L 11710,7920"/>
 <path fill="none" stroke="rgb(179,179,179)" stroke-linejoin="round" d="M 12669,8070 L 12669,7920"/>
 <path fill="none" stroke="rgb(179,179,179)" stroke-linejoin="round" d="M 12669,8070 L 12669,7920"/>
 <path fill="none" stroke="rgb(179,179,179)" stroke-linejoin="round" d="M 13629,8070 L 13629,7920"/>
 <path fill="none" stroke="rgb(179,179,179)" stroke-linejoin="round" d="M 13629,8070 L 13629,7920"/>
 <path fill="none" stroke="rgb(179,179,179)" stroke-linejoin="round" d="M 14588,8070 L 14588,7920"/>
 <path fill="none" stroke="rgb(179,179,179)" stroke-linejoin="round" d="M 14588,8070 L 14588,7920"/>
 <path fill="none" stroke="rgb(179,179,179)" stroke-linejoin="round" d="M 15548,8070 L 15548,7920"/>
 <path fill="none" stroke="rgb(179,179,179)" stroke-linejoin="round" d="M 15548,8070 L 15548,7920"/>
 <path fill="none" stroke="rgb(179,179,179)" stroke-linejoin="round" d="M 16507,8070 L 16507,7920"/>
 <path fill="none" stroke="rgb(179,179,179)" stroke-linejoin="round" d="M 16507,8070 L 16507,7920"/>
 <path fill="none" stroke="rgb(179,179,179)" stroke-linejoin="round" d="M 17467,8070 L 17467,7920"/>
 <path fill="none" stroke="rgb(179,179,179)" stroke-linejoin="round" d="M 17467,8070 L 17467,7920"/>
 <path fill="none" stroke="rgb(179,179,179)" stroke-linejoin="round" d="M 18426,8070 L 18426,7920"/>
 <path fill="none" stroke="rgb(179,179,179)" stroke-linejoin="round" d="M 18426,8070 L 18426,7920"/>
 <path fill="none" stroke="rgb(179,179,179)" stroke-linejoin="round" d="M 19386,8070 L 19386,7920"/>
 <path fill="none" stroke="rgb(179,179,179)" stroke-linejoin="round" d="M 19386,8070 L 19386,7920"/>
 <path fill="none" stroke="rgb(179,179,179)" stroke-linejoin="round" d="M 20345,8070 L 20345,7920"/>
 <path fill="none" stroke="rgb(179,179,179)" stroke-linejoin="round" d="M 20345,8070 L 20345,7920"/>
 <path fill="none" stroke="rgb(179,179,179)" stroke-linejoin="round" d="M 21305,8070 L 21305,7920"/>
 <path fill="none" stroke="rgb(179,179,179)" stroke-linejoin="round" d="M 21305,8070 L 21305,7920"/>
 <path fill="none" stroke="rgb(179,179,179)" stroke-linejoin="round" d="M 2117,7920 L 21305,7920"/>
 <path fill="none" stroke="rgb(179,179,179)" stroke-linejoin="round" d="M 1967,7920 L 2117,7920"/>
 <path fill="none" stroke="rgb(179,179,179)" stroke-linejoin="round" d="M 1967,7920 L 2117,7920"/>
 <path fill="none" stroke="rgb(179,179,179)" stroke-linejoin="round" d="M 1967,7149 L 2117,7149"/>
 <path fill="none" stroke="rgb(179,179,179)" stroke-linejoin="round" d="M 1967,7149 L 2117,7149"/>
 <path fill="none" stroke="rgb(179,179,179)" stroke-linejoin="round" d="M 1967,6378 L 2117,6378"/>
 <path fill="none" stroke="rgb(179,179,179)" stroke-linejoin="round" d="M 1967,6378 L 2117,6378"/>
 <path fill="none" stroke="rgb(179,179,179)" stroke-linejoin="round" d="M 1967,5607 L 2117,5607"/>
 <path fill="none" stroke="rgb(179,179,179)" stroke-linejoin="round" d="M 1967,5607 L 2117,5607"/>
 <path fill="none" stroke="rgb(179,179,179)" stroke-linejoin="round" d="M 1967,4837 L 2117,4837"/>
 <path fill="none" stroke="rgb(179,179,179)" stroke-linejoin="round" d="M 1967,4837 L 2117,4837"/>
 <path fill="none" stroke="rgb(179,179,179)" stroke-linejoin="round" d="M 1967,4066 L 2117,4066"/>
 <path fill="none" stroke="rgb(179,179,179)" stroke-linejoin="round" d="M 1967,4066 L 2117,4066"/>
 <path fill="none" stroke="rgb(179,179,179)" stroke-linejoin="round" d="M 1967,3295 L 2117,3295"/>
 <path fill="none" stroke="rgb(179,179,179)" stroke-linejoin="round" d="M 1967,3295 L 2117,3295"/>
 <path fill="none" stroke="rgb(179,179,179)" stroke-linejoin="round" d="M 1967,2524 L 2117,2524"/>
 <path fill="none" stroke="rgb(179,179,179)" stroke-linejoin="round" d="M 1967,2524 L 2117,2524"/>
 <path fill="none" stroke="rgb(179,179,179)" stroke-linejoin="round" d="M 1967,1753 L 2117,1753"/>
 <path fill="none" stroke="rgb(179,179,179)" stroke-linejoin="round" d="M 1967,1753 L 2117,1753"/>
 <path fill="none" stroke="rgb(179,179,179)" stroke-linejoin="round" d="M 1967,982 L 2117,982"/>
 <path fill="none" stroke="rgb(179,179,179)" stroke-linejoin="round" d="M 1967,982 L 2117,982"/>
 <path fill="none" stroke="rgb(179,179,179)" stroke-linejoin="round" d="M 1967,212 L 2117,212"/>
 <path fill="none" stroke="rgb(179,179,179)" stroke-linejoin="round" d="M 1967,212 L 2117,212"/>
 <path fill="none" stroke="rgb(179,179,179)" stroke-linejoin="round" d="M 2117,7920 L 2117,212"/>
 <path fill="rgb(0,69,134)" stroke="none" d="M 20585,7920 L 21065,7920 21065,7869 20585,7869 20585,7920 Z"/>
 <path fill="rgb(0,69,134)" stroke="none" d="M 19625,7920 L 20105,7920 20105,7829 19625,7829 19625,7920 Z"/>
 <path fill="rgb(0,69,134)" stroke="none" d="M 18666,7920 L 19146,7920 19146,7202 18666,7202 18666,7920 Z"/>
 <path fill="rgb(0,69,134)" stroke="none" d="M 17707,7920 L 18186,7920 18186,7418 17707,7418 17707,7920 Z"/>
 <path fill="rgb(0,69,134)" stroke="none" d="M 16747,7920 L 17227,7920 17227,7431 16747,7431 16747,7920 Z"/>
 <path fill="rgb(0,69,134)" stroke="none" d="M 15788,7920 L 16267,7920 16267,7751 15788,7751 15788,7920 Z"/>
 <path fill="rgb(0,69,134)" stroke="none" d="M 14828,7920 L 15308,7920 15308,7811 14828,7811 14828,7920 Z"/>
 <path fill="rgb(0,69,134)" stroke="none" d="M 13869,7920 L 14348,7920 14348,7865 13869,7865 13869,7920 Z"/>
 <path fill="rgb(0,69,134)" stroke="none" d="M 12909,7920 L 13389,7920 13389,7624 12909,7624 12909,7920 Z"/>
 <path fill="rgb(0,69,134)" stroke="none" d="M 11950,7920 L 12430,7920 12430,7907 11950,7907 11950,7920 Z"/>
 <path fill="rgb(0,69,134)" stroke="none" d="M 10990,7920 L 11470,7920 11470,7616 10990,7616 10990,7920 Z"/>
 <path fill="rgb(0,69,134)" stroke="none" d="M 10032,7920 L 10512,7920 10512,7010 10032,7010 10032,7920 Z"/>
 <path fill="rgb(0,69,134)" stroke="none" d="M 9073,7920 L 9552,7920 9552,7897 9073,7897 9073,7920 Z"/>
 <path fill="rgb(0,69,134)" stroke="none" d="M 8113,7920 L 8593,7920 8593,7570 8113,7570 8113,7920 Z"/>
 <path fill="rgb(0,69,134)" stroke="none" d="M 7154,7920 L 7633,7920 7633,6749 7154,6749 7154,7920 Z"/>
 <path fill="rgb(0,69,134)" stroke="none" d="M 6194,7920 L 6674,7920 6674,7656 6194,7656 6194,7920 Z"/>
 <path fill="rgb(0,69,134)" stroke="none" d="M 5235,7920 L 5714,7920 5714,7792 5235,7792 5235,7920 Z"/>
 <path fill="rgb(0,69,134)" stroke="none" d="M 4275,7920 L 4755,7920 4755,7305 4275,7305 4275,7920 Z"/>
 <path fill="rgb(0,69,134)" stroke="none" d="M 3316,7920 L 3796,7920 3796,7065 3316,7065 3316,7920 Z"/>
 <path fill="rgb(0,69,134)" stroke="none" d="M 2356,7920 L 2836,7920 2836,7919 2356,7919 2356,7920 Z"/>
 <path fill="rgb(255,66,14)" stroke="none" d="M 20585,7869 L 21065,7869 21065,7593 20585,7593 20585,7869 Z"/>
 <path fill="rgb(255,66,14)" stroke="none" d="M 19625,7829 L 20105,7829 20105,7111 19625,7111 19625,7829 Z"/>
 <path fill="rgb(255,66,14)" stroke="none" d="M 18666,7202 L 19146,7202 19146,3824 18666,3824 18666,7202 Z"/>
 <path fill="rgb(255,66,14)" stroke="none" d="M 17707,7418 L 18186,7418 18186,5491 17707,5491 17707,7418 Z"/>
 <path fill="rgb(255,66,14)" stroke="none" d="M 16747,7431 L 17227,7431 17227,4990 16747,4990 16747,7431 Z"/>
 <path fill="rgb(255,66,14)" stroke="none" d="M 15788,7751 L 16267,7751 16267,6719 15788,6719 15788,7751 Z"/>
 <path fill="rgb(255,66,14)" stroke="none" d="M 14828,7811 L 15308,7811 15308,7248 14828,7248 14828,7811 Z"/>
 <path fill="rgb(255,66,14)" stroke="none" d="M 13869,7865 L 14348,7865 14348,7540 13869,7540 13869,7865 Z"/>
 <path fill="rgb(255,66,14)" stroke="none" d="M 12909,7624 L 13389,7624 13389,6776 12909,6776 12909,7624 Z"/>
 <path fill="rgb(255,66,14)" stroke="none" d="M 11950,7907 L 12430,7907 12430,7752 11950,7752 11950,7907 Z"/>
 <path fill="rgb(255,66,14)" stroke="none" d="M 10990,7616 L 11470,7616 11470,6292 10990,6292 10990,7616 Z"/>
 <path fill="rgb(255,66,14)" stroke="none" d="M 10032,7010 L 10512,7010 10512,1092 10032,1092 10032,7010 Z"/>
 <path fill="rgb(255,66,14)" stroke="none" d="M 9073,7897 L 9552,7897 9552,7731 9073,7731 9073,7897 Z"/>
 <path fill="rgb(255,66,14)" stroke="none" d="M 8113,7570 L 8593,7570 8593,5377 8113,5377 8113,7570 Z"/>
 <path fill="rgb(255,66,14)" stroke="none" d="M 7154,6749 L 7633,6749 7633,2137 7154,2137 7154,6749 Z"/>
 <path fill="rgb(255,66,14)" stroke="none" d="M 6194,7656 L 6674,7656 6674,6633 6194,6633 6194,7656 Z"/>
 <path fill="rgb(255,66,14)" stroke="none" d="M 5235,7792 L 5714,7792 5714,7040 5235,7040 5235,7792 Z"/>
 <path fill="rgb(255,66,14)" stroke="none" d="M 4275,7305 L 4755,7305 4755,4544 4275,4544 4275,7305 Z"/>
 <path fill="rgb(255,66,14)" stroke="none" d="M 3316,7065 L 3796,7065 3796,3593 3316,3593 3316,7065 Z"/>
 <path fill="rgb(255,66,14)" stroke="none" d="M 2356,7919 L 2836,7919 2836,7919 2356,7919 Z"/>
 <text class="TextShape"><tspan class="TextParagraph" font-family="Liberation Sans, sans-serif" font-size="353px" font-weight="400"><tspan class="TextPosition" x="1682" y="8041"><tspan fill="rgb(0,0,0)" stroke="none">0</tspan></tspan></tspan></text>
 <text class="TextShape"><tspan class="TextParagraph" font-family="Liberation Sans, sans-serif" font-size="353px" font-weight="400"><tspan class="TextPosition" x="571" y="7270"><tspan fill="rgb(0,0,0)" stroke="none">1000000</tspan></tspan></tspan></text>
 <text class="TextShape"><tspan class="TextParagraph" font-family="Liberation Sans, sans-serif" font-size="353px" font-weight="400"><tspan class="TextPosition" x="571" y="6499"><tspan fill="rgb(0,0,0)" stroke="none">2000000</tspan></tspan></tspan></text>
 <text class="TextShape"><tspan class="TextParagraph" font-family="Liberation Sans, sans-serif" font-size="353px" font-weight="400"><tspan class="TextPosition" x="571" y="5728"><tspan fill="rgb(0,0,0)" stroke="none">3000000</tspan></tspan></tspan></text>
 <text class="TextShape"><tspan class="TextParagraph" font-family="Liberation Sans, sans-serif" font-size="353px" font-weight="400"><tspan class="TextPosition" x="571" y="4957"><tspan fill="rgb(0,0,0)" stroke="none">4000000</tspan></tspan></tspan></text>
 <text class="TextShape"><tspan class="TextParagraph" font-family="Liberation Sans, sans-serif" font-size="353px" font-weight="400"><tspan class="TextPosition" x="571" y="4186"><tspan fill="rgb(0,0,0)" stroke="none">5000000</tspan></tspan></tspan></text>
 <text class="TextShape"><tspan class="TextParagraph" font-family="Liberation Sans, sans-serif" font-size="353px" font-weight="400"><tspan class="TextPosition" x="571" y="3415"><tspan fill="rgb(0,0,0)" stroke="none">6000000</tspan></tspan></tspan></text>
 <text class="TextShape"><tspan class="TextParagraph" font-family="Liberation Sans, sans-serif" font-size="353px" font-weight="400"><tspan class="TextPosition" x="571" y="2644"><tspan fill="rgb(0,0,0)" stroke="none">7000000</tspan></tspan></tspan></text>
 <text class="TextShape"><tspan class="TextParagraph" font-family="Liberation Sans, sans-serif" font-size="353px" font-weight="400"><tspan class="TextPosition" x="571" y="1873"><tspan fill="rgb(0,0,0)" stroke="none">8000000</tspan></tspan></tspan></text>
 <text class="TextShape"><tspan class="TextParagraph" font-family="Liberation Sans, sans-serif" font-size="353px" font-weight="400"><tspan class="TextPosition" x="571" y="1102"><tspan fill="rgb(0,0,0)" stroke="none">9000000</tspan></tspan></tspan></text>
 <text class="TextShape"><tspan class="TextParagraph" font-family="Liberation Sans, sans-serif" font-size="353px" font-weight="400"><tspan class="TextPosition" x="385" y="332"><tspan fill="rgb(0,0,0)" stroke="none">10000000</tspan></tspan></tspan></text>
 <path fill="rgb(255,255,255)" stroke="none" d="M 18901,1625 L 16512,1625 16512,529 21290,529 21290,1625 18901,1625 Z"/>
 <path fill="rgb(0,69,134)" stroke="none" d="M 16734,1431 L 16628,1431 16628,1220 16839,1220 16839,1431 16734,1431 Z"/>
 <path fill="rgb(255,66,14)" stroke="none" d="M 16734,933 L 16628,933 16628,722 16839,722 16839,933 16734,933 Z"/>
 <text class="TextShape"><tspan class="TextParagraph" font-family="Liberation Sans, sans-serif" font-size="353px" font-weight="400"><tspan class="TextPosition" x="16939" y="947"><tspan fill="rgb(0,0,0)" stroke="none">notas maiores ou iguais a 3</tspan></tspan></tspan></text>
 <text class="TextShape"><tspan class="TextParagraph" font-family="Liberation Sans, sans-serif" font-size="353px" font-weight="400"><tspan class="TextPosition" x="16939" y="1445"><tspan fill="rgb(0,0,0)" stroke="none">notas menores que 3</tspan></tspan></tspan></text>
</svg>